ply
format ascii 1.0
comment Created by Blender 2.80 (sub 53) - www.blender.org, source file: 'cornel.blend'
element vertex 24
property float x
property float y
property float z
property float nx
property float ny
property float nz
property float s
property float t
element face 12
property list uchar uint vertex_indices
end_header
-6.523922 -9.500000 -4.210379 -0.866025 0.000000 0.500000 0.375000 0.000000
-4.023922 -9.500000 0.119748 -0.866025 0.000000 0.500000 0.625000 0.000000
-4.023922 2.500000 0.119748 -0.866025 0.000000 0.500000 0.625000 0.250000
-6.523922 2.500000 -4.210379 -0.866025 0.000000 0.500000 0.375000 0.250000
-6.523922 2.500000 -4.210379 0.000000 1.000000 0.000000 0.375000 0.250000
-4.023922 2.500000 0.119748 0.000000 1.000000 0.000000 0.625000 0.250000
0.306205 2.500000 -2.380252 0.000000 1.000000 0.000000 0.625000 0.500000
-2.193795 2.500000 -6.710379 0.000000 1.000000 -0.000000 0.375000 0.500000
-2.193795 2.500000 -6.710379 0.866025 0.000000 -0.500000 0.375000 0.500000
0.306205 2.500000 -2.380252 0.866025 0.000000 -0.500000 0.625000 0.500000
0.306205 -9.500000 -2.380252 0.866025 0.000000 -0.500000 0.625000 0.750000
-2.193795 -9.500000 -6.710379 0.866025 0.000000 -0.500000 0.375000 0.750000
-2.193795 -9.500000 -6.710379 0.000000 -1.000000 -0.000000 0.375000 0.750000
0.306205 -9.500000 -2.380252 0.000000 -1.000000 -0.000000 0.625000 0.750000
-4.023922 -9.500000 0.119748 0.000000 -1.000000 -0.000000 0.625000 1.000000
-6.523922 -9.500000 -4.210379 0.000000 -1.000000 0.000000 0.375000 1.000000
-6.523922 2.500000 -4.210379 -0.500000 0.000000 -0.866025 0.125000 0.500000
-2.193795 2.500000 -6.710379 -0.500000 0.000000 -0.866025 0.375000 0.500000
-2.193795 -9.500000 -6.710379 -0.500000 0.000000 -0.866025 0.375000 0.750000
-6.523922 -9.500000 -4.210379 -0.500000 0.000000 -0.866025 0.125000 0.750000
0.306205 2.500000 -2.380252 0.500000 -0.000000 0.866025 0.625000 0.500000
-4.023922 2.500000 0.119748 0.500000 -0.000000 0.866025 0.875000 0.500000
-4.023922 -9.500000 0.119748 0.500000 -0.000000 0.866025 0.875000 0.750000
0.306205 -9.500000 -2.380252 0.500000 0.000000 0.866025 0.625000 0.750000
3 0 1 2
3 0 2 3
3 4 5 6
3 4 6 7
3 8 9 10
3 8 10 11
3 12 13 14
3 12 14 15
3 16 17 18
3 16 18 19
3 20 21 22
3 20 22 23
